<svg width="20" height="20" viewBox="0 0 20 20" fill="none" xmlns="http://www.w3.org/2000/svg">
<path fill-rule="evenodd" clip-rule="evenodd" d="M18.75 10C18.75 9.83424 18.6842 9.67526 18.567 9.55805C18.4498 9.44084 18.2908 9.375 18.125 9.375H3.38377L7.31752 5.4425C7.37563 5.38439 7.42172 5.3154 7.45317 5.23948C7.48462 5.16355 7.50081 5.08218 7.50081 5C7.50081 4.91782 7.48462 4.83644 7.45317 4.76052C7.42172 4.68459 7.37563 4.61561 7.31752 4.5575C7.25941 4.49939 7.19042 4.45329 7.1145 4.42184C7.03857 4.39039 6.9572 4.37421 6.87502 4.37421C6.79284 4.37421 6.71146 4.39039 6.63554 4.42184C6.55961 4.45329 6.49063 4.49939 6.43252 4.5575L1.43252 9.5575C1.37431 9.61555 1.32814 9.68452 1.29663 9.76045C1.26512 9.83639 1.2489 9.91779 1.2489 10C1.2489 10.0822 1.26512 10.1636 1.29663 10.2395C1.32814 10.3155 1.37431 10.3844 1.43252 10.4425L6.43252 15.4425C6.49063 15.5006 6.55961 15.5467 6.63554 15.5781C6.71146 15.6096 6.79284 15.6258 6.87502 15.6258C6.9572 15.6258 7.03857 15.6096 7.1145 15.5781C7.19042 15.5467 7.25941 15.5006 7.31752 15.4425C7.37563 15.3844 7.42172 15.3154 7.45317 15.2395C7.48462 15.1636 7.50081 15.0822 7.50081 15C7.50081 14.9178 7.48462 14.8364 7.45317 14.7605C7.42172 14.6846 7.37563 14.6156 7.31752 14.5575L3.38377 10.625H18.125C18.2908 10.625 18.4498 10.5591 18.567 10.4419C18.6842 10.3247 18.75 10.1658 18.75 10Z" fill="#999999"/>
</svg>
