<svg width="19" height="18" viewBox="0 0 19 18" fill="none" xmlns="http://www.w3.org/2000/svg">
<path fill-rule="evenodd" clip-rule="evenodd" d="M0.103394 16.5C0.103394 16.2514 0.189857 16.0129 0.343764 15.8371C0.49767 15.6613 0.706412 15.5625 0.924068 15.5625H17.3376C17.5552 15.5625 17.764 15.6613 17.9179 15.8371C18.0718 16.0129 18.1582 16.2514 18.1582 16.5C18.1582 16.7486 18.0718 16.9871 17.9179 17.1629C17.764 17.3387 17.5552 17.4375 17.3376 17.4375H0.924068C0.706412 17.4375 0.49767 17.3387 0.343764 17.1629C0.189857 16.9871 0.103394 16.7486 0.103394 16.5ZM0.103394 9C0.103394 8.75136 0.189857 8.5129 0.343764 8.33709C0.49767 8.16127 0.706412 8.0625 0.924068 8.0625H17.3376C17.5552 8.0625 17.764 8.16127 17.9179 8.33709C18.0718 8.5129 18.1582 8.75136 18.1582 9C18.1582 9.24864 18.0718 9.4871 17.9179 9.66291C17.764 9.83873 17.5552 9.9375 17.3376 9.9375H0.924068C0.706412 9.9375 0.49767 9.83873 0.343764 9.66291C0.189857 9.4871 0.103394 9.24864 0.103394 9ZM0.103394 1.5C0.103394 1.25136 0.189857 1.0129 0.343764 0.837088C0.49767 0.661272 0.706412 0.5625 0.924068 0.5625H17.3376C17.5552 0.5625 17.764 0.661272 17.9179 0.837088C18.0718 1.0129 18.1582 1.25136 18.1582 1.5C18.1582 1.74864 18.0718 1.9871 17.9179 2.16291C17.764 2.33873 17.5552 2.4375 17.3376 2.4375H0.924068C0.706412 2.4375 0.49767 2.33873 0.343764 2.16291C0.189857 1.9871 0.103394 1.74864 0.103394 1.5V1.5Z" fill="black"/>
</svg>
