<svg width="32" height="32" viewBox="0 0 32 32" fill="none" xmlns="http://www.w3.org/2000/svg">
<rect width="32.0007" height="32.0002" rx="16.0001" fill="#FFB13C"/>
<path d="M20.8538 8.14639C20.76 8.05266 20.6329 8 20.5003 8C20.3677 8 20.2406 8.05266 20.1468 8.14639L18.4998 9.79339L22.2068 13.5004L23.8538 11.8544C23.9004 11.8079 23.9373 11.7528 23.9625 11.692C23.9877 11.6313 24.0007 11.5662 24.0007 11.5004C24.0007 11.4346 23.9877 11.3695 23.9625 11.3088C23.9373 11.248 23.9004 11.1928 23.8538 11.1464L20.8538 8.14639ZM21.4998 14.2074L17.7928 10.5004L11.2928 17.0004H11.4998C11.6324 17.0004 11.7596 17.0531 11.8534 17.1468C11.9471 17.2406 11.9998 17.3678 11.9998 17.5004V18.0004H12.4998C12.6324 18.0004 12.7596 18.0531 12.8534 18.1468C12.9471 18.2406 12.9998 18.3678 12.9998 18.5004V19.0004H13.4998C13.6324 19.0004 13.7596 19.0531 13.8534 19.1468C13.9471 19.2406 13.9998 19.3678 13.9998 19.5004V20.0004H14.4998C14.6324 20.0004 14.7596 20.0531 14.8534 20.1468C14.9471 20.2406 14.9998 20.3678 14.9998 20.5004V20.7074L21.4998 14.2074ZM14.0318 21.6754C14.0108 21.6194 13.9999 21.5602 13.9998 21.5004V21.0004H13.4998C13.3672 21.0004 13.24 20.9477 13.1463 20.8539C13.0525 20.7602 12.9998 20.633 12.9998 20.5004V20.0004H12.4998C12.3672 20.0004 12.24 19.9477 12.1463 19.8539C12.0525 19.7602 11.9998 19.633 11.9998 19.5004V19.0004H11.4998C11.3672 19.0004 11.24 18.9477 11.1463 18.8539C11.0525 18.7602 10.9998 18.633 10.9998 18.5004V18.0004H10.4998C10.44 18.0003 10.3808 17.9895 10.3248 17.9684L10.1458 18.1464C10.0982 18.1944 10.0607 18.2515 10.0358 18.3144L8.03581 23.3144C7.99944 23.4053 7.99053 23.5048 8.0102 23.6007C8.02987 23.6966 8.07724 23.7845 8.14645 23.8538C8.21565 23.923 8.30365 23.9703 8.39953 23.99C8.4954 24.0097 8.59494 24.0008 8.68581 23.9644L13.6858 21.9644C13.7487 21.9395 13.8058 21.902 13.8538 21.8544L14.0318 21.6754Z" fill="white"/>
</svg>
