<svg width="120" height="120" viewBox="0 0 120 120" fill="none" xmlns="http://www.w3.org/2000/svg">
<g clip-path="url(#clip0_2_2365)">
<path d="M82.5 45C82.5 50.9674 80.1295 56.6903 75.9099 60.9099C71.6903 65.1295 65.9674 67.5 60 67.5C54.0326 67.5 48.3097 65.1295 44.0901 60.9099C39.8705 56.6903 37.5 50.9674 37.5 45C37.5 39.0326 39.8705 33.3097 44.0901 29.0901C48.3097 24.8705 54.0326 22.5 60 22.5C65.9674 22.5 71.6903 24.8705 75.9099 29.0901C80.1295 33.3097 82.5 39.0326 82.5 45Z" fill="#F0F1F3"/>
<path fill-rule="evenodd" clip-rule="evenodd" d="M0 60C0 44.087 6.32141 28.8258 17.5736 17.5736C28.8258 6.32141 44.087 0 60 0C75.913 0 91.1742 6.32141 102.426 17.5736C113.679 28.8258 120 44.087 120 60C120 75.913 113.679 91.1742 102.426 102.426C91.1742 113.679 75.913 120 60 120C44.087 120 28.8258 113.679 17.5736 102.426C6.32141 91.1742 0 75.913 0 60ZM60 7.5C50.1133 7.50053 40.4277 10.2927 32.058 15.5552C23.6883 20.8177 16.9746 28.3366 12.6897 37.2465C8.40484 46.1563 6.7229 56.095 7.83749 65.9187C8.95208 75.7423 12.8179 85.0516 18.99 92.775C24.315 84.195 36.0375 75 60 75C83.9625 75 95.6775 84.1875 101.01 92.775C107.182 85.0516 111.048 75.7423 112.163 65.9187C113.277 56.095 111.595 46.1563 107.31 37.2465C103.025 28.3366 96.3117 20.8177 87.942 15.5552C79.5723 10.2927 69.8867 7.50053 60 7.5Z" fill="#F0F1F3"/>
</g>
<defs>
<clipPath id="clip0_2_2365">
<rect width="120" height="120" fill="white"/>
</clipPath>
</defs>
</svg>
