<svg width="29" height="28" viewBox="0 0 29 28" fill="none" xmlns="http://www.w3.org/2000/svg">
<rect x="0.892578" width="28" height="28" rx="14" fill="#FFB13C"/>
<path fill-rule="evenodd" clip-rule="evenodd" d="M13.4926 17.3385C14.1148 17.3385 14.731 17.2159 15.3059 16.9778C15.8808 16.7396 16.4032 16.3906 16.8432 15.9506C17.2832 15.5106 17.6322 14.9882 17.8703 14.4133C18.1085 13.8384 18.231 13.2223 18.231 12.6C18.231 11.9777 18.1085 11.3616 17.8703 10.7867C17.6322 10.2118 17.2832 9.68941 16.8432 9.2494C16.4032 8.80939 15.8808 8.46036 15.3059 8.22223C14.731 7.9841 14.1148 7.86154 13.4926 7.86154C12.2359 7.86154 11.0306 8.36077 10.142 9.2494C9.25335 10.138 8.75412 11.3433 8.75412 12.6C8.75412 13.8567 9.25335 15.062 10.142 15.9506C11.0306 16.8392 12.2359 17.3385 13.4926 17.3385ZM19.0926 12.6C19.0926 14.0852 18.5026 15.5096 17.4524 16.5598C16.4022 17.61 14.9778 18.2 13.4926 18.2C12.0074 18.2 10.583 17.61 9.53278 16.5598C8.48258 15.5096 7.89258 14.0852 7.89258 12.6C7.89258 11.1148 8.48258 9.69041 9.53278 8.6402C10.583 7.59 12.0074 7 13.4926 7C14.9778 7 16.4022 7.59 17.4524 8.6402C18.5026 9.69041 19.0926 11.1148 19.0926 12.6Z" fill="white"/>
<path d="M16.2926 16.7848C16.3223 16.8244 16.354 16.8621 16.3896 16.8987L20.2017 20.7098C20.3874 20.8955 20.6392 20.9999 20.9019 21C21.1646 21.0001 21.4165 20.8959 21.6023 20.7103C21.7881 20.5246 21.8925 20.2728 21.8926 20.0103C21.8927 19.7477 21.7884 19.4958 21.6028 19.3101L17.7907 15.499C17.7553 15.4632 17.7172 15.4301 17.6768 15.4C17.2884 15.9295 16.8217 16.3968 16.2926 16.7858V16.7848Z" fill="white"/>
</svg>
